<svg width="800" height="600" viewBox="0 0 800 600" fill="none" xmlns="http://www.w3.org/2000/svg">
  <path d="M157.5,251.8c3.8,5.7,7.4,11.5,10.8,17.6s6.9,13.7,10.5,22.8c3.6,9.1,6.9,18.8,9.7,29.1,2.8,10.3,5.1,20.1,6.9,29.4,1.8,9.3,3.5,21.6,5,36.7h-34l-3.5-25.1-2.8-12-34.1-.5,2.9,18.3.8,19.4h-35c-.9-12.5-2.1-23.1-3.5-31.6-1.4-8.6-3.1-17-4.9-25.4-1.8-8.3-4.2-16.9-7.1-25.6-2.9-8.7-5.7-17.5-8.5-26.3-2.7-8.8-2.3-15.6,1.3-20.6,3.6-4.9,7.3-7.5,11.3-7.7,3.9-.2,11.7-.3,23.4-.3,11.7,0,28.6.6,50.8,1.8h0ZM152.9,321.9c-2.8-11.4-5.1-19.3-6.9-23.6s-5.1-11.8-9.8-22.5c-17.2-1.2-26.4-.6-27.5,1.7-1.1,2.3-1.2,5.7-.4,10.2.9,4.5,4.4,15.9,10.7,34.1h34c0,0,0,0,0,0Z"/>
  <path d="M187.5,252.9l-1.1-1.7h42.2c30.7,1.1,47.6,2,50.6,2.8,3,.8,5.7,2,8.1,3.7,2.4,1.7,4.9,4.3,7.6,7.9,2.7,3.6,5.5,8.1,8.4,13.3,3,5.3,6.1,12.4,9.5,21.5,3.4,9,6.7,19.7,9.8,32,3.2,12.3,5.2,20.1,6,23.5.8,3.4,1.1,6.5,1,9.4s-.6,5.8-1.3,8.8c-.7,3-2.1,5.5-4,7.4-1.9,1.9-4.8,3.4-8.5,4.5s-34.1,1.9-91.1,2.2c-1.9-16.5-3.8-28.9-5.8-37-2-8.2-4.2-16.7-6.4-25.5s-5.5-19-9.6-30.5c-4.2-11.5-9.3-25.6-15.4-42.2h0ZM258.3,357.3c17.3,0,27-.4,29.1-1.1,2.1-.7,3.4-2,4.1-3.9.7-1.9.2-6.1-1.5-12.5-1.7-6.4-3.4-12.7-5.2-18.9-1.7-6.2-4-12.3-6.9-18.2-2.9-6-5.3-10.6-7.4-13.9s-4.3-5.9-6.6-7.9c-2.3-1.9-5.8-3.1-10.3-3.5-4.6-.4-12.1-.5-22.4-.5,4,8.1,6.9,14.2,8.8,18.4,1.8,4.2,3.7,8.7,5.5,13.4,1.8,4.7,3.7,10,5.6,16,1.9,6,3.5,11.6,4.7,16.8,1.2,5.3,2.1,10.5,2.5,15.8h0Z"/>
  <path d="M349.8,386.8c-1.8-19.5-3.2-32.9-4.2-40-1-7.2-2.6-14.9-4.7-23.2-2.1-8.3-4.4-16.7-6.9-25.2-2.5-8.5-5.1-16.5-8-24.2s-5.6-15.1-8.3-22.3l27.9-.6c31.8.5,50.4,1.6,55.6,3.5,5.3,1.8,9.2,4.7,11.9,8.4,2.6,3.8,4.6,7.7,6,11.8,1.4,4.1,2.4,9,3,14.6.6,5.6-1.1,10.5-5.1,14.7,4.6,2.3,8.2,4.8,10.8,7.4,2.6,2.6,4.9,5.9,6.8,9.9,2,4,3.9,8.8,5.6,14.4,1.8,5.7,3.3,12.1,4.7,19.2,1.4,7.2,1.7,12.5,1,16-.7,3.5-2.4,7-5.3,10.4-2.9,3.4-6.1,5.3-9.6,5.7-3.6.4-13.6.6-30.2.6h-49.7l-1.4-1.1h0ZM366.1,296.2c10.8.3,17.2,0,19.3-1.1,2.1-1.1,3.9-2.6,5.4-4.6,1.5-2,2-4.2,1.5-6.7-.5-2.4-1.6-4.4-3.2-5.9-1.7-1.5-4-2.5-7.1-3-3.1-.5-7.9-.8-14.3-.9-6.4-.2-9.6,0-9.5.7.1.6,1.1,3,2.9,7.1,1.8,4.1,3.5,8.9,5.1,14.4h0ZM381.2,362.4c9.3,0,16.6-.2,21.9-.5,5.3-.4,8-2.5,8.4-6.4.3-3.9-.2-8-1.5-12.5-1.3-4.5-2.9-7.9-4.8-10.2-1.9-2.3-5.1-3.8-9.6-4.3-4.5-.5-9.2-.7-14.1-.5-4.9.2-7.1.5-6.9,1,.3.5,1,3.8,2.2,9.7,1.2,6,2.6,13.9,4.3,23.7h0Z"/>
  <path d="M526.7,252.5l8,20.1,1.5,4.7.9,3.5c-17-.4-29.9-.6-38.8-.6s-13.9.4-14.9,1.2c-1.1.8-1.7,2.1-1.9,4-.2,1.9.2,5.2,1.4,9.9,1.2,4.7,2.8,10.8,4.9,18.3,2.1,7.4,3.7,13.7,4.9,18.7,1.2,5.1,2.2,8.8,3,11.2.8,2.4,1.5,4.1,2.1,5.1.6,1,2.2,2.6,4.8,4.7,2.6,2.1,6.2,3.2,10.9,3.2h46.2l2.2,10.4,2.3,20.9h-77.8c-2.9,0-6.7-1.5-11.5-4.6-4.8-3.1-7.9-6.3-9.3-9.7s-2.8-9-4.2-16.9-3.5-17.2-6.2-28.1c-2.7-10.9-5.2-20-7.5-27.5-2.3-7.5-4.2-13.6-5.8-18.3-1.6-4.8-2.6-8.1-3.3-10-.6-1.9-1.2-4.1-1.8-6.6-.6-2.5.6-5.5,3.6-9.2,3-3.6,7.4-5.6,13.1-5.8,5.8-.2,14.8-.2,27.1,0,12.3.2,27.6.7,46.1,1.4h0Z"/>
  <path d="M94.2,413.7l-.2-1.4h34.4c24.5.9,37.9,1.7,40,2.3,2.1.6,3.8,1.7,5.1,3.1,1.3,1.4,2.2,3.6,3,6.6.7,3,1.2,6.7,1.4,11.1.2,4.4-.1,10.3-1.1,17.8-1,7.5-2.7,16.4-5.1,26.6-2.4,10.2-4,16.7-4.8,19.5-.8,2.8-1.8,5.4-3,7.8-1.3,2.4-2.8,4.8-4.7,7.3-1.8,2.5-3.9,4.6-6.3,6.1-2.4,1.6-5.3,2.8-8.7,3.7-3.5.9-28.5,1.6-75.1,1.8,5.9-13.1,9.5-23.2,10.9-30.3,1.4-7.1,3-14.3,4.8-21.6,1.8-7.3,3.4-15.8,4.7-25.4,1.3-9.6,2.9-21.2,4.8-35.1h0ZM109,500.4c14.1,0,22.2-.3,24.1-.9,2-.6,3.6-1.7,4.9-3.3,1.3-1.6,2.6-5.1,3.9-10.4,1.2-5.3,2.4-10.5,3.6-15.7,1.1-5.1,1.7-10.2,1.9-15.1.1-5,0-8.8-.3-11.5-.3-2.8-1-4.9-2.1-6.6-1.1-1.6-3.4-2.6-7-2.9-3.6-.3-9.2-.4-16.7-.4-.7,6.7-1.2,11.8-1.5,15.3-.4,3.5-.8,7.2-1.2,11.1-.4,3.9-1.2,8.3-2.4,13.3-1.2,5-2.2,9.6-3.1,14-.9,4.4-2.2,8.7-4,13.1h0Z"/>
  <path d="M171.7,526.2c6.8-15.7,11.9-27.9,15-36.8,3.2-8.8,5.9-17.5,8.2-26.2,2.3-8.6,4.2-17.5,5.8-26.6s2.5-17.4,3-24.7h41.6c21.5.6,33.8,2.5,36.7,5.7,2.9,3.2,4.1,7.5,3.5,12.8-.6,5.3-1.6,11.1-2.8,17.5-1.3,6.4-2.3,10.8-3.1,13.1s-2.4,5.2-4.9,8.8c-2.4,3.6-8.7,7.5-18.8,11.6,5.9,12.5,10,27.6,12.2,45.2h-32.4c-1.3-8.9-3-15.6-5.1-19.9-2.1-4.3-6.2-9.6-12-15.9-1.5,4.9-2.7,8.5-3.7,11-1,2.5-4.4,10.6-10.1,24.4h-32.9ZM224.1,464.6c8.9,0,14.8-.4,17.7-1.1s5.1-2.1,6.5-4.1c1.5-2,2.4-3.8,2.9-5.4.5-1.6,1.4-5,2.8-10.1,1.3-5.1.6-8.2-2.1-9.2-2.7-1-9.5-1.4-20.2-1.1-1.1,7.5-2.5,14.1-4.2,20-1.7,5.9-2.8,9.5-3.3,10.9Z"/>
  <path d="M279.5,525.7l6.1-13.7c3.6-12.3,6.1-21.6,7.5-27.9,1.4-6.3,2.8-13.1,4.1-20.3,1.3-7.3,2.3-14.2,3-20.8.7-6.6,1.1-12.3,1.4-17.1.2-4.7.3-9.3.2-13.7l30.6.9c-.7,13.3-1.4,23.8-2.1,31.5s-2,16.4-3.9,26c-2,9.6-4.3,18.5-6.9,26.7-2.6,8.2-6,17.7-10.3,28.4h-29.7Z"/>
  <path d="M346.4,412.7h29.2c.5,9.5.5,20.5,0,32.9s-3,29.9-7.5,52.4c10.4-15.7,17.2-27.4,20.3-35,3.2-7.6,5.9-15.2,8.3-22.8,2.4-7.6,5-16.8,7.8-27.5h30.1c-2.2,8.5-4.6,16.8-7.2,24.9-2.6,8.1-6.3,17.6-11.1,28.5s-11.3,22-19.5,33.4c-8.2,11.4-15.7,20-22.3,26.1h-38.4c3-15.8,4.9-27.3,5.7-34.6.8-7.3,1.7-15,2.8-23.2,1.1-8.2,1.7-17.1,1.9-26.5.1-9.5.2-16.5.2-21.1s0-6.7-.2-6.4v-.9c0,0,0,0,0,0Z"/>
  <path d="M417,525.1c5.1-12.4,9.2-22.9,12.1-31.3,2.9-8.4,5.3-16.4,7.1-23.9,1.8-7.5,3.5-15.1,4.9-22.9,1.5-7.8,3.3-19,5.6-33.7h79.9c-.5,10.1-1.4,17.9-2.8,23.5l-51.4-.4c-1,7.4-2,13.7-3.1,18.7l51.4.4c-1.3,6.6-3.4,14.2-6.2,22.9h-51.7c-4,12.4-6.7,20.2-8.1,23.3l52.7.4c-3.1,7.8-6.6,15.6-10.3,23.4h-80.5l.3-.5h0Z"/>
  <path d="M514.7,526.2c6.8-15.7,11.9-27.9,15-36.8,3.2-8.8,5.9-17.5,8.2-26.2,2.3-8.6,4.2-17.5,5.8-26.6,1.5-9.1,2.5-17.4,3-24.7h41.6c21.5.6,33.8,2.5,36.7,5.7,2.9,3.2,4.1,7.5,3.5,12.8s-1.6,11.1-2.8,17.5c-1.3,6.4-2.3,10.8-3.1,13.1s-2.4,5.2-4.9,8.8c-2.4,3.6-8.7,7.5-18.8,11.6,5.9,12.5,10,27.6,12.2,45.2h-32.4c-1.3-8.9-3-15.6-5.1-19.9-2.1-4.3-6.2-9.6-12-15.9-1.5,4.9-2.7,8.5-3.7,11s-4.4,10.6-10.1,24.4h-32.9ZM567,464.6c8.9,0,14.8-.4,17.7-1.1,2.9-.7,5.1-2.1,6.5-4.1,1.5-2,2.4-3.8,2.9-5.4.5-1.6,1.4-5,2.8-10.1,1.3-5.1.6-8.2-2.1-9.2-2.7-1-9.5-1.4-20.2-1.1-1.1,7.5-2.5,14.1-4.2,20-1.7,5.9-2.8,9.5-3.3,10.9Z"/>
  <path d="M705.2,412.8c10.2,0,17.1,1.3,20.6,4,3.5,2.7,5,6.3,4.7,11.1-.3,4.7-1,9.9-1.9,15.5h-28.2c2.2-7.5.2-11.2-5.8-11.2h-15.9c-4.6,0-7.2,1.2-7.7,3.6-.6,2.4-1.3,5.4-2.1,9.2-.9,3.8-1,6.5-.3,8,.6,1.6,2,2.8,4.1,3.8,2.1,1,6.8,1.2,14.1.8s13.6.2,18.9,2c5.3,1.8,9.1,5.5,11.5,11.2,2.4,5.7,2.1,13.6-.8,23.8s-6,17.2-9.2,21.2-10.2,7.3-21.2,10h-35.4c-23.2.9-31.6-7.5-25.4-25.2l4.5-10.5h27.8l-2.6,8c.2,2.9.6,4.8,1.3,5.5.7.8,7.4,1,20.1.7,6.9-.8,11.2-4.6,12.8-11.4,1.7-6.8.9-11.1-2.3-12.9-3.2-1.8-8.5-2.5-15.9-2.1-7.4.4-14.3.2-20.6-.5-6.3-.8-10.6-2.5-12.9-5.4s-2.5-8.1-.7-15.8c1.8-7.7,3.2-14.1,4.3-19.1s2-9,2.8-11.8c.8-2.8,2.5-5.3,5.2-7.5,2.7-2.2,6.2-3.6,10.5-4.2,4.3-.6,12.2-.9,23.7-.9s18.8.2,22,.4Z"/>
  <path class="st0" d="M553.2,254.9l84,65.1-50.8,64.5-6.6-25.9,30.5-38.7-50.4-39-6.6-25.9Z"/>
  <path class="st0" d="M600.4,255.1l84,65.1-50.8,64.5-6.6-25.9,30.5-38.7-50.4-39.1-6.6-25.9Z"/>
  <path class="st0" d="M647.6,255.3l84,65.1-50.8,64.5-6.6-25.9,30.5-38.7-50.4-39-6.6-25.9Z"/>
</svg>
