<svg width="663" height="278" viewBox="0 0 663 278" fill="none" xmlns="http://www.w3.org/2000/svg">
<path fill-rule="evenodd" clip-rule="evenodd" d="M9.12307 1.884C2.53507 5.901 -1.00593 13.673 0.251069 21.356C0.623069 23.631 3.60607 33.818 6.88007 43.993C14.1231 66.51 16.8821 76.938 20.1701 94.228C22.4031 105.976 25.7121 130.458 25.7121 135.237C25.7121 136.845 27.1891 136.993 43.2121 136.993H60.7121L60.6681 131.243C60.6281 125.97 60.2851 122.48 58.1651 105.743L57.4371 99.993H91.4641L93.1311 108.743C94.0471 113.556 95.3551 121.768 96.0371 126.993L97.2771 136.493L131.68 137.04L131.105 132.267C124.784 79.847 113.271 42.098 93.6291 9.401L88.7681 1.30801L72.9901 0.654022C64.3121 0.294022 47.0871 0 34.7121 0C14.4361 0 11.9071 0.187003 9.12307 1.884ZM41.7121 26.29C37.5061 28.478 38.3361 36.295 44.8131 55.493L50.2121 71.493L83.8821 72.042L83.1771 68.768C81.2291 59.717 77.3281 48.306 72.4861 37.493L67.1121 25.493L55.6621 25.241C47.7741 25.068 43.4341 25.394 41.7121 26.29Z" fill="white"/>
<path fill-rule="evenodd" clip-rule="evenodd" d="M117.712 1.23602C117.712 1.54102 121.708 12.758 126.592 26.163C131.475 39.567 136.904 55.006 138.655 60.472C143.988 77.121 151.412 108.749 153.213 122.493C154.15 129.643 155.081 136.056 155.283 136.743C155.718 138.228 180.671 138.355 220.737 137.077C243.433 136.353 246.703 136.038 250.237 134.234C256.878 130.845 258.946 127.18 260.244 116.493C261.526 105.95 246.27 53.649 235.741 32.493C224.778 10.464 218.153 4.48402 202.982 2.92502C192.908 1.88902 117.712 0.401023 117.712 1.23602ZM168.094 39.689C165.134 33.196 162.712 27.684 162.712 27.439C162.712 27.194 168.224 27.003 174.962 27.015C193.813 27.049 196.621 28.994 206.687 48.993C213.837 63.2 223.634 96.182 222.292 101.529C221.287 105.535 218.201 106.386 203.151 106.81L189.091 107.206L187.836 99.009C185.555 84.111 178.005 61.425 168.094 39.689Z" fill="white"/>
<path fill-rule="evenodd" clip-rule="evenodd" d="M248.712 1.69702C248.712 2.24802 251.443 10.077 254.781 19.096C267.592 53.706 274.776 82.754 277.756 111.993C278.905 123.268 280.165 133.618 280.555 134.993L281.266 137.493H322.239C369.405 137.493 367.547 137.838 373.462 127.991C376.251 123.349 376.711 121.653 376.703 116.037C376.693 108.995 373.29 92.516 369.672 81.993C365.127 68.775 360.52 61.956 352.72 56.901L347.84 53.739L349.941 50.897C354.192 45.147 352.887 30.277 347.117 18.734C342.04 8.57601 336.693 4.839 324.657 3.035C314.598 1.527 248.712 0.366022 248.712 1.69702ZM291.055 30.234C289.766 27.32 288.712 24.724 288.712 24.464C288.712 23.513 310.332 24.037 314.085 25.079C322.309 27.363 325.475 35.72 320.25 41.357C316.799 45.081 313.745 45.993 304.727 45.993H296.873L295.136 40.763C294.18 37.886 292.344 33.148 291.055 30.234ZM308.113 91.993C306.797 85.118 305.718 79.156 305.716 78.743C305.71 77.61 325.675 77.855 329.943 79.04C336.571 80.881 341.712 90.918 341.712 102.016C341.712 110.709 340.493 111.412 324.672 111.842L311.84 112.191L311.173 108.342C310.806 106.225 309.429 98.868 308.113 91.993Z" fill="white"/>
<path d="M376.712 2.11401C373.024 3.58001 368.904 7.88101 367.704 11.519C366.782 14.311 367.415 17.098 372.716 33.604C380.106 56.612 386.738 81.689 391.196 103.486C394.984 122.009 396.479 125.828 401.592 130.054C410.195 137.163 408.908 136.993 454.073 136.993H494.803L494.278 133.743C493.99 131.955 493.292 126.443 492.728 121.493C492.164 116.543 491.336 111.143 490.887 109.493L490.07 106.493L437.035 105.493L433.005 102.698C428.144 99.327 426.643 96.112 422.636 80.493C420.942 73.893 417.794 61.743 415.64 53.493C413.485 45.243 411.72 37.281 411.717 35.8C411.707 30.351 413.568 29.993 441.882 29.993H467.608L466.562 26.743C465.987 24.955 463.664 18.721 461.4 12.888L457.285 2.28302L443.84 1.638C423.556 0.665 379.572 0.977014 376.712 2.11401Z" fill="white"/>
<path d="M481.886 3.56302C482.162 4.62502 483.923 11.464 485.8 18.762L489.212 32.03L513.96 51.162C530.157 63.683 538.417 70.673 537.865 71.393C537.402 71.998 531.04 80.143 523.727 89.493C516.415 98.843 510.073 106.955 509.635 107.52C508.796 108.6 515.507 137.018 516.586 136.958C517.361 136.916 568.839 71.44 568.987 70.309C569.046 69.86 554.721 58.344 537.153 44.716C483.331 2.967 481.347 1.49002 481.886 3.56302Z" fill="white"/>
<path d="M529.042 3.56302C529.36 4.62402 531.022 11.1 532.734 17.953C534.447 24.806 536.155 30.955 536.53 31.617C536.905 32.28 547.787 40.993 560.712 50.98C573.637 60.968 584.589 69.505 585.049 69.953C585.509 70.4 579.167 79.279 570.956 89.684L556.027 108.601L559.615 122.797C561.588 130.605 563.465 136.993 563.785 136.993C564.29 136.993 606.337 84.129 614.006 73.853L616.8 70.109L581.006 42.368C561.319 27.111 541.443 11.703 536.837 8.13C531.236 3.784 528.655 2.27202 529.042 3.56302Z" fill="white"/>
<path d="M576.247 4.05902C576.679 5.39802 578.511 12.331 580.318 19.467C582.125 26.602 584.227 32.902 584.99 33.467C594.786 40.715 632.708 70.485 632.694 70.916C632.684 71.234 626.159 79.767 618.194 89.88C610.229 99.993 603.714 108.993 603.716 109.88C603.72 111.555 610.335 136.98 610.895 137.469C611.069 137.622 623.065 122.668 637.552 104.238C662.949 71.926 663.825 70.665 662.052 68.97C661.04 68.003 642.887 53.822 621.712 37.458C600.537 21.093 581.468 6.33701 579.336 4.66501C575.525 1.67601 575.474 1.66602 576.247 4.05902Z" fill="white"/>
<path d="M589.038 163.986C583.22 165.208 579.228 167.46 576.775 170.904C574.312 174.363 566.612 206.823 566.412 214.589C566.127 225.663 571.397 227.991 597.459 228.304C619.214 228.566 621.842 229.973 620.26 240.518C619.426 246.082 616.094 251.03 611.692 253.241C606.991 255.604 588.611 255.782 586.704 253.483C585.468 251.994 585.736 246.425 587.22 242.743C587.872 241.126 586.864 240.993 573.978 240.993H560.03L557.121 248.219C555.064 253.329 554.212 257.158 554.212 261.296C554.212 266.752 554.458 267.372 557.868 270.497C559.878 272.339 563.253 274.327 565.368 274.914C567.609 275.537 579.448 275.984 593.768 275.987C616.021 275.992 618.902 275.798 624.494 273.909C627.888 272.763 632.138 270.836 633.939 269.627C643.975 262.888 652.383 231.058 646.929 220.449C642.022 210.904 634.708 207.993 615.637 207.993C605.36 207.993 603.67 207.748 601.347 205.92C598.257 203.49 598.11 201.534 600.294 191.932C601.343 187.321 602.501 184.641 603.728 183.984C604.747 183.439 610.753 182.993 617.075 182.993C630.513 182.993 632.132 183.795 631.525 190.154L631.159 193.993H644.877C652.421 193.993 658.856 193.569 659.176 193.051C659.496 192.533 659.999 187.921 660.295 182.801C660.948 171.473 660.087 169.43 653.212 165.995C648.277 163.529 647.854 163.494 620.712 163.303C605.587 163.197 591.334 163.504 589.038 163.986Z" fill="white"/>
<path fill-rule="evenodd" clip-rule="evenodd" d="M475.797 172.593C472.49 202.062 463.207 234.602 448.362 268.767L444.767 277.041L477.838 276.493L482.799 264.493C485.528 257.893 488.51 250.121 489.426 247.223C490.341 244.324 491.405 242.074 491.79 242.223C493.038 242.705 499.735 251.176 502.219 255.416C504.334 259.023 505.828 263.774 508.142 274.243L508.75 276.993H540.939L540.27 272.243C539.068 263.708 534.812 247.15 531.876 239.59L529.001 232.186L536.403 228.429C549.853 221.602 553.64 213.939 557.764 185.204C558.809 177.919 558.747 176.372 557.246 172.442C556.306 169.983 554.617 167.477 553.492 166.875C548.561 164.236 535.211 162.941 506.616 162.328L477.02 161.694L475.797 172.593ZM500.144 204.628C501.482 199.604 503.089 192.906 503.715 189.743L504.854 183.993L512.033 183.999C521.686 184.006 526.53 185.418 527.29 188.447C528.131 191.799 524.056 205.853 521.131 209.688C519.661 211.615 517.175 213.326 514.943 213.946C510.928 215.061 497.712 215.392 497.712 214.378C497.712 214.04 498.806 209.652 500.144 204.628Z" fill="white"/>
<path d="M376.269 167.243C372.131 192.45 369.091 208.687 366.612 218.826C363.388 232.012 355.722 255.068 350.246 268.054L346.897 275.993H427.457L432.094 265.243C434.643 259.33 436.726 254.156 436.721 253.743C436.716 253.33 430.075 252.991 421.962 252.988C413.849 252.986 402.25 252.698 396.186 252.348L385.159 251.713L392.948 228.993H418.763C442.49 228.993 444.618 228.851 445.08 227.243C447.226 219.771 449.611 211.033 450.129 208.743L450.75 205.993H425.231C401.565 205.993 399.718 205.866 399.788 204.243C399.83 203.281 400.407 199.118 401.07 194.993L402.275 187.493L427.695 187.225C446.144 187.031 453.319 186.629 453.858 185.757C454.266 185.097 454.872 181.618 455.205 178.025C455.539 174.432 456.053 169.806 456.349 167.743L456.888 163.993H376.803L376.269 167.243Z" fill="white"/>
<path d="M276.934 183.748C276.644 205.437 274.477 228.364 270.113 255.9C268.77 264.374 267.407 272.361 267.083 273.65L266.495 275.993H305.602L312.642 268.004C324.652 254.374 336.329 237.564 343.219 223.987C348.226 214.119 356.779 191.774 360.787 178.092C362.946 170.722 364.712 164.309 364.712 163.842C364.712 163.375 358.039 162.993 349.883 162.993H335.054L332.22 173.243C328.138 188.005 323.005 203.195 318.737 213.14C315.361 221.008 299.932 247.546 299.174 246.789C298.999 246.614 299.479 243.5 300.24 239.87C303.72 223.266 305.8 204.48 306.397 184.243L307.024 162.993L277.212 163.003L276.934 183.748Z" fill="white"/>
<path d="M231.701 170.717C231.664 197.79 221.506 250.009 212.342 270.243L209.737 275.993H239.511L244.115 263.491C255.364 232.944 260.286 207.106 261.925 169.993L262.212 163.493L231.712 162.941L231.701 170.717Z" fill="white"/>
<path fill-rule="evenodd" clip-rule="evenodd" d="M132.797 172.593C129.49 202.062 120.207 234.602 105.362 268.767L101.767 277.041L134.838 276.493L139.799 264.493C142.528 257.893 145.51 250.121 146.426 247.223C147.341 244.324 148.405 242.074 148.79 242.223C150.038 242.705 156.735 251.176 159.219 255.416C161.334 259.023 162.828 263.774 165.142 274.243L165.75 276.993H197.939L197.27 272.243C196.068 263.708 191.812 247.15 188.876 239.59L186.001 232.186L193.403 228.429C206.853 221.602 210.64 213.939 214.764 185.204C215.809 177.919 215.747 176.372 214.246 172.442C213.306 169.983 211.617 167.477 210.492 166.875C205.561 164.236 192.211 162.941 163.616 162.328L134.02 161.694L132.797 172.593ZM157.144 204.628C158.482 199.604 160.089 192.906 160.715 189.743L161.854 183.993L169.033 183.999C178.686 184.006 183.53 185.418 184.29 188.447C185.131 191.799 181.056 205.853 178.131 209.688C176.661 211.615 174.175 213.326 171.943 213.946C167.928 215.061 154.712 215.392 154.712 214.378C154.712 214.04 155.806 209.652 157.144 204.628Z" fill="white"/>
<path fill-rule="evenodd" clip-rule="evenodd" d="M24.3631 164.743C24.0981 165.705 23.6311 168.518 23.3261 170.993C18.4471 210.631 10.5731 248.833 3.77107 265.868C1.49307 271.574 -0.136936 276.477 0.149064 276.763C0.435064 277.049 17.2161 276.855 37.4411 276.33C71.2101 275.455 74.5851 275.209 78.7821 273.321C89.5951 268.456 94.9081 259.04 100.689 234.493C110.074 194.641 110.021 170.722 100.536 166.224C96.8631 164.482 72.5751 163.038 46.5291 163.014C26.7201 162.995 24.8051 163.144 24.3631 164.743ZM49.6601 200.493C50.2971 193.893 51.0441 187.414 51.3211 186.095C51.8231 183.705 51.8541 183.7 62.0181 184.309C71.2611 184.863 72.4151 185.153 74.3861 187.424C78.8881 192.609 78.6781 206.339 73.7571 228.655C70.3191 244.242 68.7541 247.66 64.1781 249.572C60.4771 251.118 39.7121 251.627 39.7121 250.171C39.7121 249.719 40.3781 247.357 41.1931 244.921C43.8701 236.913 48.4821 212.717 49.6601 200.493Z" fill="white"/>
</svg>
